Phish
8/16/09 
Saratoga Performing Arts Center
Saratoga Springs, NY

Source: {16 bit} TELEFUNKEN Ela m260 tubes (cards) > battery box > Lunatec V3 @ 24/44.1
Transfer: CF > Sound Studio 3 (fades, normalize peak, resample, dither) > xAct (align on sector boundaries, encode, tag, fingerprint)
Location: OTS, 30cm/90 degrees @ 8'
Recorded by Jesse Hurlburt

Disc 1
Set I:
01 -crowd-
02 Llama
03 The Moma Dance
04 Guyute
05 Anything But Me
06 Cars Trucks Buses
07 Chalkdust Torture
08 Golgi Apparatus
09 David Bowie
10 Cavern
11 Possum
12 Ocelot
13 Run Like An Antelope

Set II: 
14 Backwards Down The Number Line > 
15 Twenty Years Later
16 Halley's Comet > 
17 Rock and Roll
18 Harpua > 
19 I Kissed A Girl (1) > 
20 HYHU > 
21 Harpua
22 You Enjoy Myself
23 -encore break- 
24 Grind
25 I Been Around (2) 
26 Highway to Hell

1 First Time Played (Katy Perry)
2 First Time Played (Original)

    length     expanded size    cdr  WAVE problems  fmt   ratio  filename     1:01.28       10826300 B   ---   --   ---xx  phish2009-08-16.m260.t01.flac     3:27.10       36538364 B   ---   --   ---xx  phish2009-08-16.m260.t02.flac     8:00.39       84763772 B   ---   --   ---xx  phish2009-08-16.m260.t03.flac    10:53.51      115309196 B   ---   --   ---xx  phish2009-08-16.m260.t04.flac     6:22.20       67431884 B   ---   --   ---xx  phish2009-08-16.m260.t05.flac     5:02.48       53385740 B   ---   --   ---xx  phish2009-08-16.m260.t06.flac     6:26.00       68090444 B   ---   --   ---xx  phish2009-08-16.m260.t07.flac     4:37.11       48888716 B   ---   --   ---xx  phish2009-08-16.m260.t08.flac    12:51.28      136070300 B   ---   --   ---xx  phish2009-08-16.m260.t09.flac     4:20.51       45983996 B   ---   --   ---xx  phish2009-08-16.m260.t10.flac     7:56.20       84013484 B   ---   --   ---xx  phish2009-08-16.m260.t11.flac     9:17.23       98308940 B   ---   --   ---xx  phish2009-08-16.m260.t12.flac     9:44.67      103175228 B   ---   --   ---xx  phish2009-08-16.m260.t13.flac    20:30.49      217087292 B   ---   --   ---xx  phish2009-08-16.m260.t14.flac     7:46.17       82242428 B   ---   --   ---xx  phish2009-08-16.m260.t15.flac     5:44.13       60712220 B   ---   --   ---xx  phish2009-08-16.m260.t16.flac    10:55.03      115549100 B   ---   --   ---xx  phish2009-08-16.m260.t17.flac     6:26.74       68264492 B   ---   --   ---xx  phish2009-08-16.m260.t18.flac     1:59.45       21097484 B   ---   --   ---xx  phish2009-08-16.m260.t19.flac     1:13.61       13020716 B   ---   --   ---xx  phish2009-08-16.m260.t20.flac     7:55.72       83959388 B   ---   --   ---xx  phish2009-08-16.m260.t21.flac    20:17.03      214685900 B   ---   --   ---xx  phish2009-08-16.m260.t22.flac     3:32.74       37570892 B   ---   --   ---xx  phish2009-08-16.m260.t23.flac     2:07.15       22438124 B   ---   --   ---xx  phish2009-08-16.m260.t24.flac     2:22.63       25197020 B   ---   --   ---xx  phish2009-08-16.m260.t25.flac     4:37.27       48926348 B   ---   --   ---xx  phish2009-08-16.m260.t26.flac   185:31.12     1963537768 B                            0.5007  (26 files)
